<mxfile host="app.diagrams.net" modified="2021-09-16T03:02:26.113Z" agent="5.0 (Windows NT 10.0; Win64; x64) AppleWebKit/537.36 (KHTML, like Gecko) Chrome/93.0.4577.63 Safari/537.36 Edg/93.0.961.44" etag="DagtKrkJMBAK1UrJpD04" version="15.2.5" type="github">
  <diagram id="oej7wzWPO1qheC2RB6Ke" name="Page-1">
    <mxGraphModel dx="2014" dy="772" grid="1" gridSize="10" guides="1" tooltips="1" connect="1" arrows="1" fold="1" page="1" pageScale="1" pageWidth="827" pageHeight="1169" math="0" shadow="0">
      <root>
        <mxCell id="0" />
        <mxCell id="1" parent="0" />
        <mxCell id="tbrqV4_gTODMPYOUEHjS-3" value="" style="edgeStyle=orthogonalEdgeStyle;rounded=0;orthogonalLoop=1;jettySize=auto;html=1;" edge="1" parent="1" source="tbrqV4_gTODMPYOUEHjS-1" target="tbrqV4_gTODMPYOUEHjS-2">
          <mxGeometry relative="1" as="geometry" />
        </mxCell>
        <mxCell id="tbrqV4_gTODMPYOUEHjS-1" value="开始" style="ellipse;whiteSpace=wrap;html=1;" vertex="1" parent="1">
          <mxGeometry x="80" y="40" width="120" height="80" as="geometry" />
        </mxCell>
        <mxCell id="tbrqV4_gTODMPYOUEHjS-5" value="" style="edgeStyle=orthogonalEdgeStyle;rounded=0;orthogonalLoop=1;jettySize=auto;html=1;" edge="1" parent="1" source="tbrqV4_gTODMPYOUEHjS-2" target="tbrqV4_gTODMPYOUEHjS-4">
          <mxGeometry relative="1" as="geometry" />
        </mxCell>
        <mxCell id="tbrqV4_gTODMPYOUEHjS-2" value="解析命令行&amp;amp;初始化LOG" style="whiteSpace=wrap;html=1;" vertex="1" parent="1">
          <mxGeometry x="80" y="160" width="120" height="60" as="geometry" />
        </mxCell>
        <mxCell id="tbrqV4_gTODMPYOUEHjS-7" value="" style="edgeStyle=orthogonalEdgeStyle;rounded=0;orthogonalLoop=1;jettySize=auto;html=1;" edge="1" parent="1" source="tbrqV4_gTODMPYOUEHjS-4" target="tbrqV4_gTODMPYOUEHjS-6">
          <mxGeometry relative="1" as="geometry" />
        </mxCell>
        <mxCell id="tbrqV4_gTODMPYOUEHjS-4" value="注册插件&lt;br&gt;initPlugins" style="whiteSpace=wrap;html=1;" vertex="1" parent="1">
          <mxGeometry x="80" y="250" width="120" height="60" as="geometry" />
        </mxCell>
        <mxCell id="tbrqV4_gTODMPYOUEHjS-9" style="edgeStyle=orthogonalEdgeStyle;rounded=0;orthogonalLoop=1;jettySize=auto;html=1;exitX=0;exitY=0.5;exitDx=0;exitDy=0;entryX=0;entryY=0.5;entryDx=0;entryDy=0;" edge="1" parent="1" source="tbrqV4_gTODMPYOUEHjS-6" target="tbrqV4_gTODMPYOUEHjS-10">
          <mxGeometry relative="1" as="geometry">
            <mxPoint x="83" y="720" as="targetPoint" />
            <Array as="points">
              <mxPoint x="-40" y="380" />
              <mxPoint x="-40" y="1590" />
            </Array>
          </mxGeometry>
        </mxCell>
        <mxCell id="tbrqV4_gTODMPYOUEHjS-14" value="" style="edgeStyle=orthogonalEdgeStyle;rounded=0;orthogonalLoop=1;jettySize=auto;html=1;" edge="1" parent="1" source="tbrqV4_gTODMPYOUEHjS-6" target="tbrqV4_gTODMPYOUEHjS-13">
          <mxGeometry relative="1" as="geometry" />
        </mxCell>
        <mxCell id="tbrqV4_gTODMPYOUEHjS-6" value="解析task.json" style="rhombus;whiteSpace=wrap;html=1;" vertex="1" parent="1">
          <mxGeometry x="82.5" y="340" width="115" height="80" as="geometry" />
        </mxCell>
        <mxCell id="tbrqV4_gTODMPYOUEHjS-10" value="结束" style="ellipse;whiteSpace=wrap;html=1;" vertex="1" parent="1">
          <mxGeometry x="80" y="1550" width="120" height="80" as="geometry" />
        </mxCell>
        <mxCell id="tbrqV4_gTODMPYOUEHjS-11" value="否" style="text;html=1;strokeColor=none;fillColor=none;align=center;verticalAlign=middle;whiteSpace=wrap;rounded=0;" vertex="1" parent="1">
          <mxGeometry x="20" y="360" width="40" height="20" as="geometry" />
        </mxCell>
        <mxCell id="tbrqV4_gTODMPYOUEHjS-17" style="edgeStyle=orthogonalEdgeStyle;rounded=0;orthogonalLoop=1;jettySize=auto;html=1;exitX=0;exitY=0.5;exitDx=0;exitDy=0;" edge="1" parent="1" source="tbrqV4_gTODMPYOUEHjS-13">
          <mxGeometry relative="1" as="geometry">
            <mxPoint x="-40" y="490" as="targetPoint" />
          </mxGeometry>
        </mxCell>
        <mxCell id="tbrqV4_gTODMPYOUEHjS-20" value="" style="edgeStyle=orthogonalEdgeStyle;rounded=0;orthogonalLoop=1;jettySize=auto;html=1;" edge="1" parent="1" source="tbrqV4_gTODMPYOUEHjS-13" target="tbrqV4_gTODMPYOUEHjS-19">
          <mxGeometry relative="1" as="geometry" />
        </mxCell>
        <mxCell id="tbrqV4_gTODMPYOUEHjS-13" value="解析inputs&lt;br&gt;in_srs srsorigin&lt;br&gt;创建输入的空间参考&lt;br&gt;矩阵变化:in_srs=out_srs&lt;br&gt;否则&lt;br&gt;" style="rhombus;whiteSpace=wrap;html=1;" vertex="1" parent="1">
          <mxGeometry x="77.5" y="450" width="125" height="80" as="geometry" />
        </mxCell>
        <mxCell id="tbrqV4_gTODMPYOUEHjS-15" value="是" style="text;html=1;strokeColor=none;fillColor=none;align=center;verticalAlign=middle;whiteSpace=wrap;rounded=0;" vertex="1" parent="1">
          <mxGeometry x="130" y="420" width="40" height="20" as="geometry" />
        </mxCell>
        <mxCell id="tbrqV4_gTODMPYOUEHjS-18" value="否" style="text;html=1;strokeColor=none;fillColor=none;align=center;verticalAlign=middle;whiteSpace=wrap;rounded=0;" vertex="1" parent="1">
          <mxGeometry x="20" y="470" width="40" height="20" as="geometry" />
        </mxCell>
        <mxCell id="tbrqV4_gTODMPYOUEHjS-23" value="" style="edgeStyle=orthogonalEdgeStyle;rounded=0;orthogonalLoop=1;jettySize=auto;html=1;" edge="1" parent="1" source="tbrqV4_gTODMPYOUEHjS-19" target="tbrqV4_gTODMPYOUEHjS-22">
          <mxGeometry relative="1" as="geometry" />
        </mxCell>
        <mxCell id="tbrqV4_gTODMPYOUEHjS-38" style="edgeStyle=orthogonalEdgeStyle;rounded=0;orthogonalLoop=1;jettySize=auto;html=1;exitX=0;exitY=0.5;exitDx=0;exitDy=0;" edge="1" parent="1" source="tbrqV4_gTODMPYOUEHjS-19">
          <mxGeometry relative="1" as="geometry">
            <mxPoint x="-40" y="620" as="targetPoint" />
          </mxGeometry>
        </mxCell>
        <mxCell id="tbrqV4_gTODMPYOUEHjS-19" value="解析output&lt;br&gt;in_srs srsorigin&lt;br&gt;创建输入的空间参考&lt;br&gt;矩阵变化:in_srs=out_srs&lt;br&gt;否则" style="rhombus;whiteSpace=wrap;html=1;" vertex="1" parent="1">
          <mxGeometry x="77.5" y="580" width="125" height="80" as="geometry" />
        </mxCell>
        <mxCell id="tbrqV4_gTODMPYOUEHjS-21" value="是" style="text;html=1;strokeColor=none;fillColor=none;align=center;verticalAlign=middle;whiteSpace=wrap;rounded=0;" vertex="1" parent="1">
          <mxGeometry x="130" y="540" width="40" height="20" as="geometry" />
        </mxCell>
        <mxCell id="tbrqV4_gTODMPYOUEHjS-26" value="" style="edgeStyle=orthogonalEdgeStyle;rounded=0;orthogonalLoop=1;jettySize=auto;html=1;" edge="1" parent="1" source="tbrqV4_gTODMPYOUEHjS-22" target="tbrqV4_gTODMPYOUEHjS-25">
          <mxGeometry relative="1" as="geometry" />
        </mxCell>
        <mxCell id="tbrqV4_gTODMPYOUEHjS-22" value="初始化缓存" style="whiteSpace=wrap;html=1;" vertex="1" parent="1">
          <mxGeometry x="80" y="700" width="120" height="60" as="geometry" />
        </mxCell>
        <mxCell id="tbrqV4_gTODMPYOUEHjS-24" value="是" style="text;html=1;strokeColor=none;fillColor=none;align=center;verticalAlign=middle;whiteSpace=wrap;rounded=0;" vertex="1" parent="1">
          <mxGeometry x="130" y="670" width="40" height="20" as="geometry" />
        </mxCell>
        <mxCell id="tbrqV4_gTODMPYOUEHjS-28" value="" style="edgeStyle=orthogonalEdgeStyle;rounded=0;orthogonalLoop=1;jettySize=auto;html=1;" edge="1" parent="1" source="tbrqV4_gTODMPYOUEHjS-25" target="tbrqV4_gTODMPYOUEHjS-27">
          <mxGeometry relative="1" as="geometry" />
        </mxCell>
        <mxCell id="tbrqV4_gTODMPYOUEHjS-25" value="遍历inputs循环处理input" style="whiteSpace=wrap;html=1;" vertex="1" parent="1">
          <mxGeometry x="80" y="800" width="120" height="60" as="geometry" />
        </mxCell>
        <mxCell id="tbrqV4_gTODMPYOUEHjS-30" value="" style="edgeStyle=orthogonalEdgeStyle;rounded=0;orthogonalLoop=1;jettySize=auto;html=1;" edge="1" parent="1" source="tbrqV4_gTODMPYOUEHjS-27" target="tbrqV4_gTODMPYOUEHjS-29">
          <mxGeometry relative="1" as="geometry" />
        </mxCell>
        <mxCell id="tbrqV4_gTODMPYOUEHjS-27" value="osgb2b3dm&lt;br&gt;一对一转换&lt;br&gt;根据config设置和&lt;br&gt;tile数量判断多线程处理还是单线程处理" style="whiteSpace=wrap;html=1;" vertex="1" parent="1">
          <mxGeometry x="80" y="890" width="120" height="100" as="geometry" />
        </mxCell>
        <mxCell id="tbrqV4_gTODMPYOUEHjS-32" value="" style="edgeStyle=orthogonalEdgeStyle;rounded=0;orthogonalLoop=1;jettySize=auto;html=1;" edge="1" parent="1" source="tbrqV4_gTODMPYOUEHjS-29" target="tbrqV4_gTODMPYOUEHjS-31">
          <mxGeometry relative="1" as="geometry" />
        </mxCell>
        <mxCell id="tbrqV4_gTODMPYOUEHjS-35" value="" style="edgeStyle=orthogonalEdgeStyle;rounded=0;orthogonalLoop=1;jettySize=auto;html=1;" edge="1" parent="1" source="tbrqV4_gTODMPYOUEHjS-29" target="tbrqV4_gTODMPYOUEHjS-34">
          <mxGeometry relative="1" as="geometry" />
        </mxCell>
        <mxCell id="tbrqV4_gTODMPYOUEHjS-29" value="根据config设置&lt;br&gt;是否重构顶层块" style="rhombus;whiteSpace=wrap;html=1;" vertex="1" parent="1">
          <mxGeometry x="97.5" y="1020" width="85" height="80" as="geometry" />
        </mxCell>
        <mxCell id="tbrqV4_gTODMPYOUEHjS-48" style="edgeStyle=orthogonalEdgeStyle;rounded=0;orthogonalLoop=1;jettySize=auto;html=1;entryX=1.008;entryY=0.617;entryDx=0;entryDy=0;entryPerimeter=0;" edge="1" parent="1" source="tbrqV4_gTODMPYOUEHjS-31" target="tbrqV4_gTODMPYOUEHjS-40">
          <mxGeometry relative="1" as="geometry">
            <mxPoint x="302.5" y="1280" as="targetPoint" />
            <Array as="points">
              <mxPoint x="303" y="1277" />
            </Array>
          </mxGeometry>
        </mxCell>
        <mxCell id="tbrqV4_gTODMPYOUEHjS-31" value="reconTopTiles&lt;br&gt;重建顶层块&lt;br&gt;(程序奔溃)" style="whiteSpace=wrap;html=1;fillColor=#f8cecc;strokeColor=#b85450;" vertex="1" parent="1">
          <mxGeometry x="242.5" y="1030" width="120" height="60" as="geometry" />
        </mxCell>
        <mxCell id="tbrqV4_gTODMPYOUEHjS-33" value="是" style="text;html=1;strokeColor=none;fillColor=none;align=center;verticalAlign=middle;whiteSpace=wrap;rounded=0;" vertex="1" parent="1">
          <mxGeometry x="190" y="1040" width="40" height="20" as="geometry" />
        </mxCell>
        <mxCell id="tbrqV4_gTODMPYOUEHjS-41" value="" style="edgeStyle=orthogonalEdgeStyle;rounded=0;orthogonalLoop=1;jettySize=auto;html=1;" edge="1" parent="1" source="tbrqV4_gTODMPYOUEHjS-34" target="tbrqV4_gTODMPYOUEHjS-40">
          <mxGeometry relative="1" as="geometry" />
        </mxCell>
        <mxCell id="tbrqV4_gTODMPYOUEHjS-34" value="生成默认顶层块索引" style="whiteSpace=wrap;html=1;" vertex="1" parent="1">
          <mxGeometry x="80" y="1140" width="120" height="60" as="geometry" />
        </mxCell>
        <mxCell id="tbrqV4_gTODMPYOUEHjS-36" value="否" style="text;html=1;strokeColor=none;fillColor=none;align=center;verticalAlign=middle;whiteSpace=wrap;rounded=0;" vertex="1" parent="1">
          <mxGeometry x="130" y="1110" width="40" height="20" as="geometry" />
        </mxCell>
        <mxCell id="tbrqV4_gTODMPYOUEHjS-39" value="否" style="text;html=1;strokeColor=none;fillColor=none;align=center;verticalAlign=middle;whiteSpace=wrap;rounded=0;" vertex="1" parent="1">
          <mxGeometry x="20" y="600" width="40" height="20" as="geometry" />
        </mxCell>
        <mxCell id="tbrqV4_gTODMPYOUEHjS-43" value="" style="edgeStyle=orthogonalEdgeStyle;rounded=0;orthogonalLoop=1;jettySize=auto;html=1;" edge="1" parent="1" source="tbrqV4_gTODMPYOUEHjS-40" target="tbrqV4_gTODMPYOUEHjS-42">
          <mxGeometry relative="1" as="geometry" />
        </mxCell>
        <mxCell id="tbrqV4_gTODMPYOUEHjS-40" value="计算全局包围盒" style="whiteSpace=wrap;html=1;" vertex="1" parent="1">
          <mxGeometry x="80" y="1240" width="120" height="60" as="geometry" />
        </mxCell>
        <mxCell id="tbrqV4_gTODMPYOUEHjS-45" value="" style="edgeStyle=orthogonalEdgeStyle;rounded=0;orthogonalLoop=1;jettySize=auto;html=1;" edge="1" parent="1" source="tbrqV4_gTODMPYOUEHjS-42" target="tbrqV4_gTODMPYOUEHjS-44">
          <mxGeometry relative="1" as="geometry" />
        </mxCell>
        <mxCell id="tbrqV4_gTODMPYOUEHjS-42" value="设置transform" style="whiteSpace=wrap;html=1;" vertex="1" parent="1">
          <mxGeometry x="80" y="1340" width="120" height="60" as="geometry" />
        </mxCell>
        <mxCell id="tbrqV4_gTODMPYOUEHjS-47" style="edgeStyle=orthogonalEdgeStyle;rounded=0;orthogonalLoop=1;jettySize=auto;html=1;exitX=0.5;exitY=1;exitDx=0;exitDy=0;entryX=0.5;entryY=0;entryDx=0;entryDy=0;" edge="1" parent="1" source="tbrqV4_gTODMPYOUEHjS-44" target="tbrqV4_gTODMPYOUEHjS-10">
          <mxGeometry relative="1" as="geometry" />
        </mxCell>
        <mxCell id="tbrqV4_gTODMPYOUEHjS-44" value="生成&lt;br&gt;tileset.json" style="whiteSpace=wrap;html=1;" vertex="1" parent="1">
          <mxGeometry x="80" y="1440" width="120" height="60" as="geometry" />
        </mxCell>
      </root>
    </mxGraphModel>
  </diagram>
</mxfile>
